<svg xmlns="http://www.w3.org/2000/svg" viewBox="0 0 100 100">
  <!-- Arco (eco del logo) -->
  <path d="M27 68 A26 26 0 1 1 73 68" fill="none" stroke="#E07B39" stroke-width="4" stroke-linecap="round"/>
  <!-- Hojas jade -->
  <path d="M24 82 Q31 72 42 77 Q34 86 24 82 Z" fill="#3FB68B"/>
  <path d="M76 82 Q69 72 58 77 Q66 86 76 82 Z" fill="#3FB68B"/>
  <!-- Iglesia blanca (puerta y rosetón como huecos transparentes) -->
  <path fill="#FFFFFF" fill-rule="evenodd" d="M36 81 V51 H64 V81 Z M45 81 V64 Q50 58 55 64 V81 Z M47.4 55 A2.6 2.6 0 1 0 52.6 55 A2.6 2.6 0 1 0 47.4 55 Z"/>
  <path d="M33 51 L50 40 L67 51 Z" fill="#FFFFFF"/>
  <path d="M46.5 40 h7 v-8 h-7 Z" fill="#FFFFFF"/>
  <path d="M45 32 Q50 26 55 32 Z" fill="#FFFFFF"/>
  <!-- Cruz -->
  <path d="M50 17 V27 M46 21 H54" stroke="#FFFFFF" stroke-width="2.6" stroke-linecap="round"/>
</svg>
